<svg width="149" height="58" viewBox="0 0 149 58" fill="none" xmlns="http://www.w3.org/2000/svg" xmlns:xlink="http://www.w3.org/1999/xlink">
<path d="M44.2498 21.75C45.7977 20.6088 46.941 19.0177 47.518 17.2021C48.0949 15.3866 48.0761 13.4386 47.4642 11.6342C46.8524 9.82973 45.6785 8.26027 44.1088 7.14812C42.5392 6.03596 40.6534 5.4375 38.7185 5.4375H22.1248C20.1899 5.4375 18.3041 6.03596 16.7345 7.14812C15.1649 8.26027 13.991 9.82973 13.3791 11.6342C12.7673 13.4386 12.7485 15.3866 13.3254 17.2021C13.9023 19.0177 15.0457 20.6088 16.5935 21.75C15.4216 22.6134 14.4757 23.7389 13.8343 25.0333C13.193 26.3276 12.8745 27.7535 12.9054 29.193C12.9362 30.6324 13.3155 32.0439 14.0118 33.3105C14.7081 34.5771 15.7013 35.6625 16.9093 36.4766C15.5353 37.5035 14.4507 38.8581 13.7582 40.4123C13.0656 41.9664 12.7881 43.6686 12.9518 45.3577C13.1155 47.0468 13.715 48.6668 14.6936 50.0645C15.6723 51.4621 16.9976 52.591 18.5441 53.3444C20.0906 54.0978 21.8071 54.4506 23.5311 54.3696C25.2551 54.2885 26.9296 53.7762 28.3959 52.8812C29.8622 51.9862 31.0719 50.738 31.9103 49.2549C32.7488 47.7719 33.1883 46.103 33.1873 44.4062V36.25C35.1433 37.6921 37.6019 38.3113 40.0223 37.9714C42.4427 37.6315 44.6266 36.3603 46.0935 34.4375C47.5605 32.5147 48.1904 30.0977 47.8446 27.7184C47.4989 25.339 46.2058 23.1921 44.2498 21.75ZM29.4998 34.4375H22.1248C20.6578 34.4375 19.2509 33.8646 18.2136 32.8449C17.1763 31.8252 16.5935 30.4421 16.5935 29C16.5935 27.5579 17.1763 26.1748 18.2136 25.1551C19.2509 24.1354 20.6578 23.5625 22.1248 23.5625H29.4998V34.4375ZM38.7185 19.9375H33.1873V9.0625H38.7185C40.1855 9.0625 41.5924 9.63538 42.6297 10.6551C43.667 11.6748 44.2498 13.0579 44.2498 14.5C44.2498 15.9421 43.667 17.3252 42.6297 18.3449C41.5924 19.3646 40.1855 19.9375 38.7185 19.9375Z" fill="#BEBEBE"/>
<path d="M44.2498 21.75C45.7977 20.6088 46.941 19.0177 47.518 17.2021C48.0949 15.3866 48.0761 13.4386 47.4642 11.6342C46.8524 9.82973 45.6785 8.26027 44.1088 7.14812C42.5392 6.03596 40.6534 5.4375 38.7185 5.4375H22.1248C20.1899 5.4375 18.3041 6.03596 16.7345 7.14812C15.1649 8.26027 13.991 9.82973 13.3791 11.6342C12.7673 13.4386 12.7485 15.3866 13.3254 17.2021C13.9023 19.0177 15.0457 20.6088 16.5935 21.75C15.4216 22.6134 14.4757 23.7389 13.8343 25.0333C13.193 26.3276 12.8745 27.7535 12.9054 29.193C12.9362 30.6324 13.3155 32.0439 14.0118 33.3105C14.7081 34.5771 15.7013 35.6625 16.9093 36.4766C15.5353 37.5035 14.4507 38.8581 13.7582 40.4123C13.0656 41.9664 12.7881 43.6686 12.9518 45.3577C13.1155 47.0468 13.715 48.6668 14.6936 50.0645C15.6723 51.4621 16.9976 52.591 18.5441 53.3444C20.0906 54.0978 21.8071 54.4506 23.5311 54.3696C25.2551 54.2885 26.9296 53.7762 28.3959 52.8812C29.8622 51.9862 31.0719 50.738 31.9103 49.2549C32.7488 47.7719 33.1883 46.103 33.1873 44.4062V36.25C35.1433 37.6921 37.6019 38.3113 40.0223 37.9714C42.4427 37.6315 44.6266 36.3603 46.0935 34.4375C47.5605 32.5147 48.1904 30.0977 47.8446 27.7184C47.4989 25.339 46.2058 23.1921 44.2498 21.75ZM29.4998 34.4375H22.1248C20.6578 34.4375 19.2509 33.8646 18.2136 32.8449C17.1763 31.8252 16.5935 30.4421 16.5935 29C16.5935 27.5579 17.1763 26.1748 18.2136 25.1551C19.2509 24.1354 20.6578 23.5625 22.1248 23.5625H29.4998V34.4375ZM38.7185 19.9375H33.1873V9.0625H38.7185C40.1855 9.0625 41.5924 9.63538 42.6297 10.6551C43.667 11.6748 44.2498 13.0579 44.2498 14.5C44.2498 15.9421 43.667 17.3252 42.6297 18.3449C41.5924 19.3646 40.1855 19.9375 38.7185 19.9375Z" fill="url(#pattern0_531_2265)" fill-opacity="0.2"/>
<path fill-rule="evenodd" clip-rule="evenodd" d="M136.017 7.05762C133.645 6.69011 130.721 8.0934 124.873 10.9L105.773 20.0657C104.381 20.7339 103.684 21.0681 103.309 21.3183C99.2704 24.0134 99.6581 30.0155 104.011 32.1797C104.415 32.3807 105.149 32.6243 106.616 33.1117C108.062 33.5921 108.786 33.8324 109.493 34.0896C116.446 36.6177 122.791 40.5524 128.122 45.6427C128.664 46.1604 129.198 46.6998 130.265 47.7785C131.348 48.8725 131.89 49.4199 132.249 49.6921C136.115 52.6252 141.741 50.353 142.431 45.5803C142.495 45.1373 142.495 44.3715 142.495 42.84L142.5 21.8321C142.501 15.3994 142.502 12.1831 141.133 10.2305C139.938 8.52518 138.089 7.3786 136.017 7.05762ZM136.16 21.8075L136.164 27.346C136.166 29.6827 133.301 30.8422 131.648 29.1737C129.213 26.7162 126.226 24.8635 122.93 23.7669C120.692 23.0223 120.496 19.9647 122.622 18.9472L127.659 16.5355C130.521 15.1656 131.952 14.4806 133.112 14.6781C134.062 14.84 134.91 15.3657 135.471 16.1414C136.157 17.0882 136.158 18.6613 136.16 21.8075Z" fill="#BEBEBE"/>
<path fill-rule="evenodd" clip-rule="evenodd" d="M136.017 7.05762C133.645 6.69011 130.721 8.0934 124.873 10.9L105.773 20.0657C104.381 20.7339 103.684 21.0681 103.309 21.3183C99.2704 24.0134 99.6581 30.0155 104.011 32.1797C104.415 32.3807 105.149 32.6243 106.616 33.1117C108.062 33.5921 108.786 33.8324 109.493 34.0896C116.446 36.6177 122.791 40.5524 128.122 45.6427C128.664 46.1604 129.198 46.6998 130.265 47.7785C131.348 48.8725 131.89 49.4199 132.249 49.6921C136.115 52.6252 141.741 50.353 142.431 45.5803C142.495 45.1373 142.495 44.3715 142.495 42.84L142.5 21.8321C142.501 15.3994 142.502 12.1831 141.133 10.2305C139.938 8.52518 138.089 7.3786 136.017 7.05762ZM136.16 21.8075L136.164 27.346C136.166 29.6827 133.301 30.8422 131.648 29.1737C129.213 26.7162 126.226 24.8635 122.93 23.7669C120.692 23.0223 120.496 19.9647 122.622 18.9472L127.659 16.5355C130.521 15.1656 131.952 14.4806 133.112 14.6781C134.062 14.84 134.91 15.3657 135.471 16.1414C136.157 17.0882 136.158 18.6613 136.16 21.8075Z" fill="url(#pattern1_531_2265)" fill-opacity="0.2"/>
<path d="M57.3363 22.1419C57.132 21.9561 56.8158 21.9712 56.63 22.1755C56.4443 22.3798 56.4593 22.696 56.6637 22.8818L57 22.5118L57.3363 22.1419ZM72 27.0119L71.8563 26.533L72 27.0119ZM73 31.0299L73 31.5299L73 31.0299ZM91.6822 30.4955C91.9394 30.3949 92.0662 30.1049 91.9656 29.8477L90.3258 25.6571C90.2252 25.4 89.9352 25.2731 89.678 25.3737C89.4208 25.4743 89.294 25.7644 89.3946 26.0215L90.8522 29.7465L87.1272 31.2041C86.8701 31.3047 86.7432 31.5948 86.8438 31.8519C86.9444 32.1091 87.2345 32.236 87.4916 32.1353L91.6822 30.4955ZM57 22.5118L56.6637 22.8818C59.4493 25.4142 62.0159 26.9653 64.5518 27.6806C67.0961 28.3982 69.5692 28.2631 72.1437 27.4908L72 27.0119L71.8563 26.533C69.4308 27.2606 67.1539 27.3755 64.8232 26.7181C62.4841 26.0584 60.0507 24.6094 57.3363 22.1419L57 22.5118ZM72 27.0119L72.1437 27.4908C74.8476 26.6797 76.165 23.7774 75.9913 21.1253C75.9033 19.7815 75.4353 18.4477 74.5302 17.4099C73.6186 16.3644 72.2877 15.6479 70.5383 15.5133L70.5 16.0118L70.4617 16.5104C71.9623 16.6258 73.0455 17.2288 73.7765 18.0671C74.5142 18.913 74.9173 20.0273 74.9935 21.1906C75.1481 23.5526 73.9655 25.9003 71.8563 26.533L72 27.0119ZM70.5 16.0118L70.5383 15.5133C68.6888 15.371 67.1296 16.376 66.0513 17.8526C64.974 19.3278 64.3325 21.3228 64.297 23.3244C64.2614 25.3287 64.8337 27.3861 66.2442 28.948C67.663 30.5193 69.8763 31.5299 73 31.5299L73 31.0299L73 30.5299C70.1029 30.5299 68.1808 29.6007 66.9864 28.2779C65.7835 26.9458 65.2647 25.1549 65.2968 23.3422C65.329 21.5268 65.9141 19.7361 66.8589 18.4423C67.8027 17.1499 69.0612 16.4026 70.4617 16.5104L70.5 16.0118ZM73 31.0299L73 31.5299C78.0878 31.53 80.793 30.3769 83.139 29.6978C84.3019 29.3611 85.3657 29.1428 86.6142 29.2089C87.8656 29.2752 89.3369 29.6293 91.2996 30.488L91.5 30.0299L91.7004 29.5718C89.6631 28.6805 88.0719 28.2847 86.6671 28.2103C85.2593 28.1358 84.0731 28.3863 82.861 28.7372C80.457 29.4331 77.9122 30.53 73 30.5299L73 31.0299Z" fill="#737373"/>
<defs>
<pattern id="pattern0_531_2265" patternUnits="userSpaceOnUse" patternTransform="matrix(8.56483 0 0 16.0491 25.0487 5.43753)" preserveAspectRatio="none" viewBox="0 8.59868e-05 23.7912 44.5807" width="1" height="1">
<use xlink:href="#pattern0_531_2265_inner" transform="translate(-35.6868 -22.2904)"/>
<use xlink:href="#pattern0_531_2265_inner" transform="translate(-11.8956 -22.2904)"/>
<use xlink:href="#pattern0_531_2265_inner" transform="translate(11.8956 -22.2904)"/>
<use xlink:href="#pattern0_531_2265_inner" transform="translate(-47.5824 0)"/>
<use xlink:href="#pattern0_531_2265_inner" transform="translate(-23.7912 0)"/>
<g id="pattern0_531_2265_inner">
<rect width="39.6535" height="1.61851" transform="matrix(0.73164 0.681691 0.681691 -0.73164 0 1.18417)" fill="#ECECEC"/>
</g>
<use xlink:href="#pattern0_531_2265_inner" transform="translate(-35.6868 22.2904)"/>
<use xlink:href="#pattern0_531_2265_inner" transform="translate(-11.8956 22.2904)"/>
<use xlink:href="#pattern0_531_2265_inner" transform="translate(11.8956 22.2904)"/>
</pattern><pattern id="pattern1_531_2265" patternUnits="userSpaceOnUse" patternTransform="matrix(8.56483 0 0 16.0491 115.465 6.69014)" preserveAspectRatio="none" viewBox="0 8.59868e-05 23.7912 44.5807" width="1" height="1">
<use xlink:href="#pattern1_531_2265_inner" transform="translate(-35.6868 -22.2904)"/>
<use xlink:href="#pattern1_531_2265_inner" transform="translate(-11.8956 -22.2904)"/>
<use xlink:href="#pattern1_531_2265_inner" transform="translate(11.8956 -22.2904)"/>
<use xlink:href="#pattern1_531_2265_inner" transform="translate(-47.5824 0)"/>
<use xlink:href="#pattern1_531_2265_inner" transform="translate(-23.7912 0)"/>
<g id="pattern1_531_2265_inner">
<rect width="39.6535" height="1.61851" transform="matrix(0.73164 0.681691 0.681691 -0.73164 0 1.18417)" fill="#ECECEC"/>
</g>
<use xlink:href="#pattern1_531_2265_inner" transform="translate(-35.6868 22.2904)"/>
<use xlink:href="#pattern1_531_2265_inner" transform="translate(-11.8956 22.2904)"/>
<use xlink:href="#pattern1_531_2265_inner" transform="translate(11.8956 22.2904)"/>
</pattern></defs>
</svg>
